<?xml version="1.0" encoding="UTF-8"?>
<svg id="Layer_1" xmlns="http://www.w3.org/2000/svg" xmlns:xlink="http://www.w3.org/1999/xlink" version="1.1" viewBox="0 0 469.42 177.31">
  <!-- Generator: Adobe Illustrator 29.6.1, SVG Export Plug-In . SVG Version: 2.1.1 Build 9)  -->
  <defs>
    <style>
      .st0 {
        fill: none;
      }

      .st1, .st2 {
        fill-rule: evenodd;
      }

      .st1, .st3 {
        fill: #fff;
      }

      .st2, .st4 {
        fill: #88be4d;
      }

      .st5 {
        fill: #666766;
      }

      .st6 {
        fill: #336f36;
      }

      .st7 {
        clip-path: url(#clippath);
      }
    </style>
    <clipPath id="clippath">
      <path class="st0" d="M86.81-5.14S36.47,54.56,21.25,80.56c0,0-37,48.63,11.37,83.45,0,0,27.97,20.24,59.06-1.28,0,0,19.4-12.64,23.2-37.07,0,0,1.61-13.03-3-38.14,0,0-11.89-54.17-25.07-92.66Z"/>
    </clipPath>
  </defs>
  <g class="st7">
    <g>
      <g id="Shape_1">
        <path class="st6" d="M83.9,5.96c-2.54,2.85-67.69,76.02-73.18,103.85-5.59,28.39,12.57,56,40.59,61.68,5.64,1.15,11.26,1.32,16.67.61-12.98-31.7,8.13-131.97,15.92-166.14Z"/>
      </g>
      <path class="st2" d="M83.98,5.71s-.03.03-.08.08c-7.79,34.17-28.9,134.43-15.92,166.13,21.44-2.76,39.71-19.06,44.19-41.73,5.6-28.38-28.19-124.49-28.19-124.49Z"/>
      <path class="st3" d="M54.81,102.83v-3.66c0-4.47.68-8.61,2.05-12.42,1.38-3.81,3.38-7.11,6.02-9.9,2.64-2.79,5.89-4.98,9.75-6.55,3.86-1.58,8.28-2.37,13.26-2.37,2.54,0,5.06.25,7.54.76,2.49.51,4.72,1.35,6.71,2.52,1.98,1.17,3.57,2.69,4.79,4.57,1.23,1.88,1.83,4.2,1.83,6.93,0,1.84-.71,3.41-2.14,4.73-1.41,1.32-3.14,1.98-5.18,1.98-1.73,0-3.27-.44-4.65-1.3-1.37-.87-2.05-2.16-2.05-3.89,0-1.53.23-2.51.68-2.97.46-.45.69-1.04.69-1.75,0-2.02-.87-3.55-2.6-4.57-1.72-1.01-3.91-1.52-6.54-1.52-3.96,0-7.02.85-9.14,2.58-2.14,1.73-3.71,3.91-4.73,6.55-1.01,2.65-1.6,5.52-1.75,8.62-.15,3.1-.23,6.02-.23,8.76v2.9c0,1.21.1,1.95.31,2.2.2.26.86.38,1.98.38h14.78c.61,0,1.06.33,1.37.99.3.67.45,1.4.45,2.21s-.15,1.55-.45,2.21c-.31.66-.76,1-1.37,1h-14.78c-1.12,0-1.78.12-1.98.38-.2.25-.31,1.09-.31,2.51v41.3c0,2.54.1,4.65.31,6.32.2,1.67.7,3.02,1.52,4.04.81,1.02,2.15,1.83,4.03,2.43,1.88.61,4.49,1.12,7.86,1.53.61.1,1.07.38,1.37.84.31.45.45.99.45,1.6,0,.51-.15,1-.45,1.45-.3.46-.71.69-1.22.69-4.07,0-7.7-.17-10.9-.53-3.2-.35-6.33-.54-9.37-.54-3.26,0-6.51.18-9.76.54-3.26.36-6.4.53-9.45.53-.61,0-1.07-.23-1.37-.69-.31-.45-.46-.93-.46-1.45,0-.61.15-1.14.46-1.6.3-.46.81-.74,1.52-.84,2.74-.31,4.84-.73,6.33-1.29,1.47-.56,2.56-1.34,3.27-2.37.72-1.01,1.15-2.33,1.3-3.96.15-1.62.23-3.7.23-6.25v-53.62Z"/>
      <g id="Shape_2">
        <path class="st4" d="M36.38,91.24c-6.49-6.49-13.14-9.98-13.14-9.98,8.56,7.84,2.56,19.87,15.92,25.02,4.96,1.91,7.47,1.66,8.67,1.2,0,0-4.96-9.76-11.45-16.24Z"/>
      </g>
      <path class="st1" d="M55.35,108.84c-1.46.12-3.75-1.08-6.06-2.75.63-1.26,1.5-4.27.03-10.16-2.64-10.56-17.99-13.85-26.08-14.67,0,0,6.65,3.49,13.14,9.98,6.49,6.48,11.45,16.24,11.45,16.24,1.99,1.47,4.19,2.85,6.38,3.73,1.57.62,4.23-2.62,1.14-2.38Z"/>
    </g>
  </g>
  <g>
    <g>
      <path class="st5" d="M144.21,59.91c0-9.13,0-10.77-.12-12.64-.12-1.99-.59-2.92-2.52-3.33-.47-.12-1.46-.18-1.99-.18-.23,0-.47-.12-.47-.35,0-.35.29-.47.94-.47,1.35,0,2.93,0,4.21.06l2.4.12c1.17.06,13.05,0,14.4-.06,1.11-.06,2.05-.06,2.57-.23.35-.12.59-.35.82-.35s.35.23.35.53c0,.41-.29,1.11-.47,2.75-.06.59-.17,3.16-.29,3.87-.06.29-.17.64-.47.64s-.41-.29-.41-.7c0-.47-.18-1.46-.53-2.22-.35-.76-1.7-1.81-3.98-1.87l-9.01-.18c-.35,0-.53.18-.53.64v16.15c0,.35.06.53.41.53l7.49-.06c.99,0,1.81,0,2.63-.06,1.41-.12,2.16-.3,2.69-1.05.23-.29.41-.59.64-.59s.29.17.29.47c0,.35-.29,1.35-.47,3.28-.12,1.17-.23,3.51-.23,3.92,0,.53,0,1.12-.41,1.12-.29,0-.41-.24-.41-.53-.06-.59-.12-1.4-.35-2.11-.29-.82-1.23-1.88-3.04-2.11-1.46-.18-7.84-.18-8.84-.18-.29,0-.41.12-.41.53v4.98c0,5.62,0,10.24.29,12.7.17,1.7.53,2.99,2.28,3.22.82.12,2.11.23,2.63.23.35,0,.47.17.47.35,0,.29-.29.47-.94.47-3.22,0-6.91-.17-7.2-.17s-3.98.17-5.74.17c-.64,0-.94-.12-.94-.47,0-.18.12-.35.47-.35.53,0,1.23-.12,1.76-.23,1.17-.23,1.46-1.52,1.7-3.22.29-2.46.29-7.08.29-12.7v-10.3Z"/>
      <path class="st5" d="M196.76,48.85c11.59,0,20.37,7.08,20.37,18.67s-8.25,20.31-20.66,20.31c-14.11,0-20.13-10.59-20.13-19.55,0-8.02,6.21-19.43,20.43-19.43ZM197.93,85.78c4.63,0,13.93-2.46,13.93-16.86,0-11.94-7.26-18.21-15.4-18.21-8.6,0-14.81,5.38-14.81,16.21,0,11.59,6.96,18.85,16.27,18.85Z"/>
      <path class="st5" d="M231.52,63.95c0-7.73,0-9.13-.12-10.71-.12-1.58-.41-2.52-2.11-2.75-.41-.06-1.29-.12-1.76-.12-.17,0-.41-.23-.41-.41,0-.29.24-.41.82-.41,2.34,0,5.44.12,5.91.12s3.69-.12,5.21-.12c.58,0,.88.12.88.41,0,.18-.23.41-.47.41-.35,0-.64,0-1.29.12-1.35.23-1.64,1.11-1.76,2.75-.12,1.58-.12,2.99-.12,10.71v6.97c0,7.2,1.58,10.18,3.81,12.18,2.52,2.28,4.74,2.69,7.67,2.69,3.16,0,6.21-1.41,7.96-3.51,2.4-2.87,2.93-6.97,2.93-12.06v-6.26c0-7.73-.06-9.13-.12-10.71-.06-1.58-.35-2.52-2.05-2.75-.41-.06-1.29-.12-1.76-.12-.23,0-.41-.23-.41-.41,0-.29.23-.41.82-.41,2.28,0,5.27.12,5.56.12.35,0,2.81-.12,4.33-.12.59,0,.82.12.82.41,0,.18-.17.41-.41.41-.35,0-.64,0-1.29.12-1.4.29-1.7,1.11-1.81,2.75-.12,1.58-.06,2.99-.06,10.71v5.33c0,5.38-.7,11.41-4.8,14.93-3.75,3.22-7.72,3.63-10.77,3.63-1.7,0-7.09-.12-10.71-3.51-2.52-2.34-4.51-5.79-4.51-13.05v-7.32Z"/>
      <path class="st5" d="M283.83,80.4c.12,4.1.59,5.33,1.99,5.68.94.23,2.11.29,2.57.29.24,0,.41.17.41.41,0,.29-.35.41-.94.41-2.93,0-4.98-.17-5.45-.17s-2.63.17-4.98.17c-.53,0-.82-.06-.82-.41,0-.23.18-.41.41-.41.41,0,1.35-.06,2.11-.29,1.29-.35,1.46-1.7,1.46-6.21v-28.51c0-1.99.29-2.52.7-2.52.58,0,1.46.99,1.99,1.52.82.82,8.31,8.78,16.27,16.97,5.09,5.27,10.59,11.18,12.18,12.82l-.53-24.94c-.06-3.22-.35-4.33-1.93-4.62-.94-.18-2.11-.23-2.52-.23-.35,0-.41-.29-.41-.47,0-.29.41-.35,1-.35,2.34,0,4.8.12,5.38.12s2.29-.12,4.39-.12c.53,0,.94.06.94.35,0,.18-.23.47-.58.47-.23,0-.64,0-1.23.12-1.7.35-1.81,1.35-1.81,4.33l-.12,29.15c0,3.28-.06,3.57-.41,3.57-.53,0-1.05-.41-3.92-3.04-.53-.47-7.96-7.78-13.4-13.46-5.97-6.26-11.77-12.35-13.35-14.11l.58,23.47Z"/>
      <path class="st5" d="M333.93,63.95c0-7.73,0-9.13-.12-10.71-.12-1.7-.41-2.52-2.11-2.75-.41-.06-1.29-.12-1.76-.12-.18,0-.41-.23-.41-.41,0-.29.23-.41.82-.41,2.34,0,5.68.12,5.97.12.58,0,3.87-.12,6.91-.12,5.15,0,14.58-.47,20.66,5.68,2.58,2.58,5.04,6.73,5.04,12.64,0,6.26-2.7,11.06-5.56,13.99-2.22,2.28-6.85,5.73-15.63,5.73-2.22,0-4.98-.18-7.2-.29-2.22-.17-3.98-.29-4.21-.29-.12,0-1.05.06-2.11.06-1.05.06-2.28.12-3.1.12-.53,0-.82-.12-.82-.41,0-.18.12-.41.41-.41.47,0,1.11-.12,1.58-.23,1-.23,1.11-1.17,1.35-2.63.29-2.05.29-5.97.29-10.77v-8.78ZM338.61,69.33c0,5.27,0,9.89.06,10.83.06,1.23.18,3.04.59,3.57.64.93,2.46,1.99,8.55,1.99,4.74,0,8.96-1.58,12.06-4.51,2.69-2.52,4.04-7.26,4.04-11.83,0-6.32-2.75-10.36-4.86-12.47-4.86-4.92-10.54-5.56-16.68-5.56-1,0-2.64.18-3.1.35-.47.18-.64.41-.64.99v16.62Z"/>
      <path class="st5" d="M385.42,63.95c0-7.73,0-9.13-.12-10.71-.12-1.7-.41-2.52-2.11-2.75-.41-.06-1.29-.12-1.75-.12-.18,0-.41-.23-.41-.41,0-.29.23-.41.82-.41,2.34,0,5.68.12,5.97.12.35,0,11.12.06,12.29,0,.99-.06,1.93-.24,2.34-.29.24-.06.47-.24.7-.24.18,0,.23.24.23.47,0,.35-.29.94-.41,2.34-.06.47-.18,2.7-.29,3.28-.06.23-.24.53-.47.53-.29,0-.41-.23-.41-.64,0-.35-.06-1.17-.29-1.76-.35-.82-.88-1.17-3.69-1.52-.88-.12-6.85-.18-7.43-.18-.23,0-.29.18-.29.53v13.52c0,.35,0,.53.29.53.64,0,7.43,0,8.6-.12,1.23-.12,1.99-.18,2.52-.7.35-.35.59-.64.76-.64s.29.12.29.41-.29,1.11-.41,2.75c-.12,1-.23,2.87-.23,3.22,0,.41-.12.94-.47.94-.24,0-.35-.18-.35-.47,0-.47,0-.99-.23-1.64-.17-.7-.64-1.29-2.63-1.53-1.41-.17-6.91-.23-7.79-.23-.29,0-.35.18-.35.35v4.16c0,1.7-.06,7.49,0,8.49.12,3.34,1.05,3.98,6.14,3.98,1.35,0,3.81,0,5.15-.53,1.35-.58,2.05-1.46,2.34-3.45.12-.59.24-.76.53-.76s.35.41.35.76-.41,3.75-.7,4.8c-.35,1.29-.88,1.29-2.87,1.29-3.86,0-6.85-.12-8.95-.17-2.17-.12-3.51-.12-4.28-.12-.11,0-1.11,0-2.22.06-.99.06-2.17.12-2.98.12-.53,0-.82-.12-.82-.41,0-.18.12-.41.41-.41.47,0,1.11-.18,1.58-.23,1-.18,1.11-1.17,1.35-2.63.29-2.05.29-5.97.29-10.77v-8.78Z"/>
      <path class="st5" d="M422.35,63.95c0-7.73,0-9.13-.12-10.71-.12-1.7-.41-2.52-2.11-2.75-.41-.06-1.29-.12-1.76-.12-.18,0-.41-.23-.41-.41,0-.29.23-.41.82-.41,2.34,0,5.79.12,6.09.12.53,0,4.86-.12,6.44-.12,3.28,0,6.91.29,9.6,2.17,1.29.94,3.57,3.34,3.57,6.79,0,3.69-1.52,7.26-6.32,11.36,4.21,5.27,7.78,9.78,10.77,12.88,2.75,2.81,4.45,3.28,5.74,3.45,1,.18,1.52.18,1.82.18s.47.23.47.41c0,.29-.29.41-1.23.41h-3.22c-2.93,0-4.21-.29-5.5-.99-2.22-1.17-4.1-3.57-7.03-7.32-2.16-2.69-4.45-5.91-5.56-7.26-.23-.23-.35-.29-.7-.29l-6.56-.12c-.24,0-.35.12-.35.41v1.17c0,4.8,0,8.66.23,10.71.17,1.46.47,2.4,2.05,2.63.7.12,1.82.23,2.29.23.35,0,.41.23.41.41,0,.24-.23.41-.82.41-2.81,0-6.09-.17-6.32-.17-.06,0-3.51.17-5.09.17-.53,0-.82-.12-.82-.41,0-.18.12-.41.41-.41.47,0,1.12-.12,1.58-.23.99-.23,1.11-1.17,1.35-2.63.29-2.05.29-5.97.29-10.77v-8.78ZM426.8,68.16c0,.29.12.47.35.64.76.41,3.39.76,5.68.76,1.23,0,2.64-.06,3.87-.88,1.75-1.17,3.1-3.8,3.1-7.61,0-6.2-3.39-9.78-8.9-9.78-1.52,0-3.16.18-3.69.29-.23.12-.41.29-.41.59v15.98Z"/>
    </g>
    <g>
      <path class="st5" d="M149.61,133.23c0,5.25,0,9.58.28,11.88.16,1.59.49,2.79,2.13,3.01.77.11,1.97.22,2.46.22.33,0,.44.16.44.33,0,.27-.27.44-.88.44-3.01,0-6.46-.16-6.73-.16s-3.72.16-5.36.16c-.6,0-.87-.11-.87-.44,0-.17.11-.33.44-.33.49,0,1.15-.11,1.64-.22,1.09-.22,1.37-1.42,1.59-3.01.27-2.3.27-6.62.27-11.88v-9.63c0-8.54,0-10.07-.11-11.82-.11-1.86-.66-2.79-1.86-3.07-.6-.16-1.31-.22-1.7-.22-.22,0-.44-.11-.44-.33,0-.33.27-.44.87-.44,1.8,0,5.25.16,5.53.16s3.72-.16,5.36-.16c.6,0,.88.11.88.44,0,.22-.22.33-.44.33-.38,0-.71.06-1.37.17-1.48.27-1.91,1.2-2.02,3.12-.11,1.75-.11,3.28-.11,11.82v9.63Z"/>
      <path class="st5" d="M174.23,142.75c.11,3.83.55,4.98,1.86,5.3.88.22,1.97.28,2.41.28.22,0,.38.16.38.38,0,.27-.33.38-.88.38-2.74,0-4.65-.16-5.09-.16s-2.46.16-4.65.16c-.49,0-.77-.05-.77-.38,0-.22.17-.38.38-.38.38,0,1.26-.06,1.97-.28,1.2-.33,1.37-1.59,1.37-5.8v-26.65c0-1.86.27-2.35.65-2.35.55,0,1.37.93,1.86,1.42.77.77,7.77,8.21,15.21,15.87,4.76,4.92,9.9,10.45,11.38,11.98l-.49-23.31c-.05-3.01-.33-4.05-1.8-4.32-.88-.16-1.97-.22-2.35-.22-.33,0-.38-.27-.38-.44,0-.28.38-.33.93-.33,2.19,0,4.49.11,5.04.11s2.13-.11,4.1-.11c.49,0,.88.05.88.33,0,.16-.22.44-.55.44-.22,0-.6,0-1.15.11-1.59.33-1.7,1.26-1.7,4.05l-.11,27.25c0,3.06-.05,3.34-.38,3.34-.49,0-.98-.38-3.67-2.85-.49-.44-7.44-7.28-12.53-12.58-5.58-5.86-11-11.54-12.48-13.19l.55,21.94Z"/>
      <path class="st5" d="M218.1,148.44c-.66-.33-.71-.49-.71-1.75,0-2.3.22-4.16.28-4.93,0-.49.11-.76.38-.76s.44.16.44.54,0,1.04.17,1.7c.77,3.39,4.38,4.6,7.6,4.6,4.76,0,7.22-2.68,7.22-6.18s-1.81-4.93-6.07-8.1l-2.19-1.64c-5.2-3.88-6.89-6.73-6.89-9.96,0-5.47,4.32-8.75,10.67-8.75,1.92,0,3.83.27,4.98.55.93.22,1.31.22,1.7.22s.49.06.49.33c0,.22-.22,1.75-.22,4.92,0,.71-.05,1.04-.38,1.04s-.38-.22-.44-.6c-.06-.55-.44-1.8-.71-2.3-.33-.54-1.92-2.3-6.24-2.3-3.5,0-6.4,1.75-6.4,5.04,0,2.95,1.48,4.65,6.24,7.88l1.37.93c5.85,4,7.88,7.22,7.88,11.22,0,2.74-1.04,5.69-4.48,7.93-2.03,1.31-5.04,1.64-7.66,1.64-2.24,0-5.03-.33-7-1.26Z"/>
      <path class="st5" d="M265.7,135.58c0,4.49,0,8.15.22,10.07.16,1.37.38,2.24,1.86,2.46.66.11,1.75.22,2.19.22.33,0,.38.22.38.38,0,.22-.22.38-.77.38-2.62,0-5.69-.16-5.96-.16-.22,0-3.55.16-4.98.16-.55,0-.77-.11-.77-.38,0-.17.11-.33.38-.33.44,0,.98-.11,1.42-.22.98-.22,1.26-1.15,1.42-2.52.22-1.92.22-5.58.22-10.07v-19.53l-6.95.11c-3.01.05-4.16.38-4.87,1.48-.54.82-.6,1.15-.77,1.48-.11.38-.27.44-.49.44-.11,0-.33-.11-.33-.38,0-.49.99-4.65,1.04-5.03.11-.28.33-.88.49-.88.33,0,.82.38,2.13.55,1.37.16,3.23.22,3.78.22h18.17c1.58,0,2.68-.11,3.45-.22.71-.11,1.15-.22,1.37-.22s.22.27.22.55c0,1.42-.16,4.76-.16,5.3,0,.38-.22.6-.44.6s-.33-.16-.38-.82l-.05-.49c-.16-1.42-1.2-2.46-5.8-2.57l-6.02-.11v19.53Z"/>
      <path class="st5" d="M297.32,135.58c0,4.49,0,8.15.22,10.07.16,1.37.33,2.24,1.75,2.46.71.11,1.75.22,2.19.22.28,0,.38.22.38.38,0,.22-.22.38-.77.38-2.68,0-5.8-.16-6.02-.16-.27,0-3.28.16-4.76.16-.49,0-.77-.11-.77-.38,0-.17.11-.38.38-.38.44,0,1.04-.11,1.48-.22.93-.22,1.09-1.1,1.26-2.46.22-1.92.28-5.58.28-10.07v-8.21c0-7.22,0-8.54-.11-10.01-.11-1.58-.49-2.3-1.53-2.51-.55-.11-1.15-.17-1.48-.17-.22,0-.38-.22-.38-.38,0-.27.22-.38.77-.38,1.58,0,4.59.11,4.87.11.22,0,3.34-.11,4.82-.11.54,0,.76.11.76.38,0,.16-.22.38-.38.38-.33,0-.66,0-1.2.11-1.31.27-1.59.93-1.7,2.57-.05,1.48-.05,2.79-.05,10.01v8.21Z"/>
      <path class="st5" d="M329.1,135.58c0,4.49,0,8.15.22,10.07.17,1.37.38,2.24,1.86,2.46.66.11,1.75.22,2.19.22.33,0,.38.22.38.38,0,.22-.22.38-.77.38-2.62,0-5.69-.16-5.96-.16-.22,0-3.55.16-4.98.16-.55,0-.77-.11-.77-.38,0-.17.11-.33.38-.33.44,0,.98-.11,1.42-.22.98-.22,1.26-1.15,1.42-2.52.22-1.92.22-5.58.22-10.07v-19.53l-6.95.11c-3.01.05-4.16.38-4.87,1.48-.54.82-.6,1.15-.77,1.48-.11.38-.27.44-.49.44-.11,0-.33-.11-.33-.38,0-.49.98-4.65,1.04-5.03.11-.28.33-.88.49-.88.33,0,.82.38,2.13.55,1.37.16,3.23.22,3.78.22h18.17c1.58,0,2.68-.11,3.45-.22.71-.11,1.15-.22,1.37-.22s.22.27.22.55c0,1.42-.16,4.76-.16,5.3,0,.38-.22.6-.44.6s-.33-.16-.38-.82l-.05-.49c-.16-1.42-1.2-2.46-5.8-2.57l-6.02-.11v19.53Z"/>
      <path class="st5" d="M353.88,127.37c0-7.22,0-8.54-.11-10.01-.11-1.47-.38-2.35-1.97-2.57-.38-.05-1.2-.11-1.64-.11-.17,0-.38-.22-.38-.38,0-.27.22-.38.77-.38,2.19,0,5.09.11,5.53.11s3.45-.11,4.87-.11c.55,0,.82.11.82.38,0,.16-.22.38-.44.38-.33,0-.6,0-1.2.11-1.26.22-1.53,1.04-1.64,2.57-.11,1.48-.11,2.79-.11,10.01v6.51c0,6.73,1.48,9.52,3.56,11.38,2.35,2.13,4.43,2.52,7.17,2.52,2.96,0,5.8-1.31,7.44-3.28,2.24-2.68,2.74-6.51,2.74-11.27v-5.85c0-7.22-.05-8.54-.11-10.01-.05-1.47-.33-2.35-1.91-2.57-.38-.05-1.2-.11-1.64-.11-.22,0-.38-.22-.38-.38,0-.27.22-.38.77-.38,2.13,0,4.92.11,5.2.11.33,0,2.62-.11,4.05-.11.55,0,.77.11.77.38,0,.16-.17.38-.38.38-.33,0-.6,0-1.2.11-1.31.27-1.59,1.04-1.7,2.57-.11,1.48-.05,2.79-.05,10.01v4.98c0,5.04-.66,10.67-4.49,13.95-3.5,3.01-7.22,3.39-10.07,3.39-1.59,0-6.62-.11-10.01-3.28-2.35-2.19-4.21-5.41-4.21-12.2v-6.84Z"/>
      <path class="st5" d="M411.27,135.58c0,4.49,0,8.15.22,10.07.16,1.37.38,2.24,1.86,2.46.66.11,1.75.22,2.19.22.33,0,.38.22.38.38,0,.22-.22.38-.77.38-2.63,0-5.69-.16-5.96-.16-.22,0-3.56.16-4.98.16-.55,0-.77-.11-.77-.38,0-.17.11-.33.38-.33.44,0,.99-.11,1.42-.22.98-.22,1.26-1.15,1.42-2.52.22-1.92.22-5.58.22-10.07v-19.53l-6.95.11c-3.01.05-4.16.38-4.87,1.48-.54.82-.6,1.15-.77,1.48-.11.38-.27.44-.49.44-.11,0-.33-.11-.33-.38,0-.49.99-4.65,1.04-5.03.11-.28.33-.88.49-.88.33,0,.82.38,2.14.55,1.37.16,3.22.22,3.77.22h18.17c1.58,0,2.68-.11,3.45-.22.71-.11,1.15-.22,1.37-.22s.22.27.22.55c0,1.42-.16,4.76-.16,5.3,0,.38-.22.6-.44.6s-.33-.16-.38-.82l-.05-.49c-.17-1.42-1.2-2.46-5.8-2.57l-6.02-.11v19.53Z"/>
      <path class="st5" d="M438.51,127.37c0-7.22,0-8.54-.11-10.01-.11-1.58-.38-2.35-1.97-2.57-.38-.05-1.2-.11-1.64-.11-.17,0-.38-.22-.38-.38,0-.27.22-.38.77-.38,2.19,0,5.31.11,5.58.11.33,0,10.4.05,11.49,0,.93-.06,1.8-.22,2.19-.27.22-.05.44-.22.66-.22.16,0,.22.22.22.44,0,.33-.28.88-.39,2.19-.05.44-.16,2.52-.27,3.06-.05.22-.22.49-.44.49-.28,0-.38-.22-.38-.6,0-.33-.05-1.1-.27-1.64-.33-.76-.82-1.09-3.45-1.42-.82-.11-6.4-.16-6.95-.16-.22,0-.27.16-.27.49v12.64c0,.33,0,.49.27.49.6,0,6.95,0,8.04-.11,1.15-.11,1.86-.16,2.35-.65.33-.33.54-.6.71-.6s.27.11.27.38-.27,1.04-.38,2.57c-.11.93-.22,2.68-.22,3.01,0,.38-.11.88-.44.88-.22,0-.33-.16-.33-.44,0-.44,0-.93-.22-1.53-.17-.65-.6-1.2-2.46-1.42-1.31-.16-6.46-.22-7.28-.22-.27,0-.33.17-.33.33v3.88c0,1.59-.05,7,0,7.93.11,3.12.99,3.72,5.74,3.72,1.26,0,3.56,0,4.82-.49,1.26-.55,1.91-1.37,2.19-3.23.11-.55.22-.71.49-.71s.33.38.33.71-.38,3.5-.66,4.49c-.33,1.2-.82,1.2-2.68,1.2-3.61,0-6.4-.11-8.37-.16-2.03-.11-3.28-.11-4-.11-.11,0-1.04,0-2.08.05-.93.06-2.02.11-2.79.11-.49,0-.77-.11-.77-.38,0-.17.11-.38.38-.38.44,0,1.04-.17,1.48-.22.93-.17,1.04-1.1,1.26-2.46.28-1.92.28-5.58.28-10.07v-8.21Z"/>
    </g>
  </g>
</svg>