<?xml version="1.0" encoding="UTF-8" standalone="no"?>
<!-- Created with Inkscape (http://www.inkscape.org/) -->

<svg
   version="1.1"
   id="svg1"
   width="690.17334"
   height="282.34668"
   viewBox="0 0 690.17334 282.34668"
   sodipodi:docname="FI-logo_horizontal-1.eps"
   xmlns:inkscape="http://www.inkscape.org/namespaces/inkscape"
   xmlns:sodipodi="http://sodipodi.sourceforge.net/DTD/sodipodi-0.dtd"
   xmlns="http://www.w3.org/2000/svg"
   xmlns:svg="http://www.w3.org/2000/svg">
  <defs
     id="defs1">
    <clipPath
       clipPathUnits="userSpaceOnUse"
       id="clipPath3">
      <path
         d="m 1066.27,2016.77 c 0,0 -503.36,-596.95 -655.618,-856.95 0,0 -369.9879,-486.289 113.723,-834.531 0,0 279.656,-202.437 590.615,12.77 0,0 193.97,126.41 231.98,370.73 0,0 16.14,130.289 -30.02,381.401 0,0 -118.86,541.74 -250.68,926.58 z"
         transform="translate(0,2.5000001e-5)"
         id="path3" />
    </clipPath>
    <clipPath
       clipPathUnits="userSpaceOnUse"
       id="clipPath5">
      <path
         d="m 1066.27,2016.77 c 0,0 -503.36,-596.95 -655.618,-856.95 0,0 -369.9879,-486.289 113.723,-834.531 0,0 279.656,-202.437 590.615,12.77 0,0 193.97,126.41 231.98,370.73 0,0 16.14,130.289 -30.02,381.401 0,0 -118.86,541.74 -250.68,926.58 z"
         transform="translate(0,2.5000001e-5)"
         id="path5" />
    </clipPath>
    <clipPath
       clipPathUnits="userSpaceOnUse"
       id="clipPath7">
      <path
         d="m 1066.27,2016.77 c 0,0 -503.36,-596.95 -655.618,-856.95 0,0 -369.9879,-486.289 113.723,-834.531 0,0 279.656,-202.437 590.615,12.77 0,0 193.97,126.41 231.98,370.73 0,0 16.14,130.289 -30.02,381.401 0,0 -118.86,541.74 -250.68,926.58 z"
         transform="translate(0,2.5000001e-5)"
         id="path7" />
    </clipPath>
    <clipPath
       clipPathUnits="userSpaceOnUse"
       id="clipPath9">
      <path
         d="m 1066.27,2016.77 c 0,0 -503.36,-596.95 -655.618,-856.95 0,0 -369.9879,-486.289 113.723,-834.531 0,0 279.656,-202.437 590.615,12.77 0,0 193.97,126.41 231.98,370.73 0,0 16.14,130.289 -30.02,381.401 0,0 -118.86,541.74 -250.68,926.58 z"
         transform="translate(0,2.5000001e-5)"
         id="path9" />
    </clipPath>
    <clipPath
       clipPathUnits="userSpaceOnUse"
       id="clipPath11">
      <path
         d="m 1066.27,2016.77 c 0,0 -503.36,-596.95 -655.618,-856.95 0,0 -369.9879,-486.289 113.723,-834.531 0,0 279.656,-202.437 590.615,12.77 0,0 193.97,126.41 231.98,370.73 0,0 16.14,130.289 -30.02,381.401 0,0 -118.86,541.74 -250.68,926.58 z"
         transform="translate(0,2.5000001e-5)"
         id="path11" />
    </clipPath>
  </defs>
  <sodipodi:namedview
     id="namedview1"
     pagecolor="#ffffff"
     bordercolor="#000000"
     borderopacity="0.25"
     inkscape:showpageshadow="2"
     inkscape:pageopacity="0.0"
     inkscape:pagecheckerboard="0"
     inkscape:deskcolor="#d1d1d1">
    <inkscape:page
       x="0"
       y="0"
       inkscape:label="1"
       id="page1"
       width="690.17334"
       height="282.34668"
       margin="0"
       bleed="0" />
  </sodipodi:namedview>
  <g
     id="g1"
     inkscape:groupmode="layer"
     inkscape:label="1">
    <g
       id="group-R5">
      <path
         id="path2"
         d="M 1037.17,1905.8 C 1011.78,1877.3 360.293,1145.56 305.391,867.301 249.453,583.379 431.086,307.262 711.27,250.512 767.703,239.039 823.895,237.32 877.969,244.371 748.203,561.379 959.277,1564.1 1037.17,1905.8"
         style="fill:#316c2f;fill-opacity:1;fill-rule:nonzero;stroke:none"
         transform="matrix(0.13333333,0,0,-0.13333333,0,282.34667)"
         clip-path="url(#clipPath3)" />
      <path
         id="path4"
         d="m 1037.95,1908.32 c 0,0 -0.32,-0.27 -0.78,-0.84 -77.893,-341.7 -288.967,-1344.3 -159.201,-1661.351 214.431,27.562 397.151,190.57 441.891,417.32 56.02,283.77 -281.91,1244.871 -281.91,1244.871"
         style="fill:#7bc53a;fill-opacity:1;fill-rule:evenodd;stroke:none"
         transform="matrix(0.13333333,0,0,-0.13333333,0,282.34667)"
         clip-path="url(#clipPath5)" />
      <path
         id="path6"
         d="m 746.27,937.031 c 0,9.219 0,21.41 0,36.641 0,44.668 6.828,86.088 20.488,124.198 13.789,38.08 33.808,71.09 60.234,99 26.446,27.9 58.906,49.79 97.481,65.49 38.574,15.76 82.827,23.66 132.607,23.66 25.38,0 50.56,-2.53 75.42,-7.59 24.91,-5.09 47.25,-13.49 67.11,-25.15 19.77,-11.68 35.74,-26.88 47.88,-45.67 12.3,-18.82 18.34,-41.97 18.34,-69.33 0,-18.36 -7.1,-34.06 -21.4,-47.29 -14.12,-13.22 -31.41,-19.82 -51.8,-19.82 -17.26,0 -32.75,4.36 -46.48,12.97 -13.65,8.67 -20.49,21.6 -20.49,38.88 0,15.26 2.3,25.12 6.84,29.71 4.57,4.51 6.88,10.37 6.88,17.54 0,20.24 -8.67,35.47 -25.96,45.68 -17.25,10.12 -39.1,15.18 -65.43,15.18 -39.64,0 -70.224,-8.53 -91.447,-25.84 -21.398,-17.28 -37.148,-39.12 -47.305,-65.49 -10.136,-26.5 -15.976,-55.19 -17.508,-86.15 -1.515,-30.96 -2.257,-60.181 -2.257,-87.638 v -28.981 c 0,-12.133 1.015,-19.551 3.054,-22.011 2.043,-2.559 8.567,-3.829 19.809,-3.829 h 147.804 c 6.09,0 10.64,-3.261 13.71,-9.882 3.04,-6.68 4.55,-13.989 4.55,-22.129 0,-8.149 -1.51,-15.489 -4.55,-22.071 -3.07,-6.64 -7.62,-10 -13.71,-10 H 912.336 c -11.242,0 -17.766,-1.211 -19.809,-3.769 -2.039,-2.481 -3.054,-10.879 -3.054,-25.059 V 405.289 c 0,-25.391 1.015,-46.519 3.054,-63.219 2.043,-16.742 7.043,-30.218 15.246,-40.41 8.079,-10.16 21.543,-18.301 40.293,-24.34 18.829,-6.09 44.942,-11.211 78.574,-15.25 6.09,-1.039 10.68,-3.851 13.71,-8.402 3.07,-4.527 4.52,-9.879 4.52,-15.977 0,-5.113 -1.45,-10 -4.52,-14.453 -3.03,-4.59 -7.13,-6.867 -12.18,-6.867 -40.67,0 -77.037,1.707 -109.01,5.309 -31.992,3.531 -63.262,5.351 -93.652,5.351 -32.57,0 -65.059,-1.82 -97.578,-5.351 -32.598,-3.602 -63.965,-5.309 -94.453,-5.309 -6.075,0 -10.711,2.277 -13.704,6.867 -3.054,4.453 -4.578,9.34 -4.578,14.453 0,6.098 1.524,11.45 4.578,15.977 2.993,4.551 8.149,7.363 15.247,8.402 27.414,3.059 48.437,7.301 63.261,12.93 14.668,5.559 25.586,13.441 32.676,23.648 7.168,10.102 11.465,23.34 12.988,39.653 1.535,16.168 2.325,36.969 2.325,62.48 v 417.5 118.75"
         style="fill:#ffffff;fill-opacity:1;fill-rule:nonzero;stroke:none"
         transform="matrix(0.13333333,0,0,-0.13333333,0,282.34667)"
         clip-path="url(#clipPath7)" />
      <path
         id="path8"
         d="m 562.012,1052.97 c -64.903,64.92 -131.446,99.8 -131.446,99.8 85.625,-78.36 25.645,-198.711 159.239,-250.211 49.55,-19.118 74.746,-16.618 86.711,-12.028 0,0 -49.653,97.59 -114.504,162.439"
         style="fill:#7bc53a;fill-opacity:1;fill-rule:nonzero;stroke:none"
         transform="matrix(0.13333333,0,0,-0.13333333,0,282.34667)"
         clip-path="url(#clipPath9)" />
      <path
         id="path10"
         d="m 751.719,877.012 c -14.61,-1.153 -37.5,10.797 -60.645,27.5 6.27,12.617 14.981,42.707 0.266,101.598 -26.438,105.57 -179.934,138.53 -260.774,146.66 0,0 66.543,-34.88 131.446,-99.8 64.851,-64.849 114.504,-162.439 114.504,-162.439 19.863,-14.672 41.89,-28.48 63.777,-37.269 15.684,-6.231 42.273,26.226 11.426,23.75"
         style="fill:#ffffff;fill-opacity:1;fill-rule:evenodd;stroke:none"
         transform="matrix(0.13333333,0,0,-0.13333333,0,282.34667)"
         clip-path="url(#clipPath11)" />
      <path
         id="path12"
         d="m 1640.27,1366.29 c 0,91.31 0,107.71 -1.17,126.44 -1.18,19.88 -5.86,29.24 -25.17,33.34 -4.67,1.2 -14.63,1.76 -19.91,1.76 -2.34,0 -4.67,1.19 -4.67,3.52 0,3.51 2.92,4.7 9.36,4.7 13.47,0 29.28,0 42.13,-0.6 l 24.02,-1.18 c 11.7,-0.58 130.53,0 144,0.59 11.1,0.59 20.48,0.59 25.73,2.32 3.52,1.2 5.88,3.54 8.22,3.54 2.33,0 3.52,-2.34 3.52,-5.27 0,-4.1 -2.93,-11.12 -4.71,-27.5 -0.58,-5.86 -1.74,-31.63 -2.92,-38.65 -0.59,-2.91 -1.75,-6.45 -4.68,-6.45 -2.94,0 -4.1,2.95 -4.1,7.03 0,4.71 -1.77,14.63 -5.25,22.25 -3.52,7.61 -16.99,18.14 -39.83,18.73 l -90.13,1.75 c -3.52,0 -5.28,-1.75 -5.28,-6.44 v -161.54 c 0,-3.52 0.61,-5.28 4.11,-5.28 l 74.93,0.59 c 9.93,0 18.13,0 26.32,0.58 14.07,1.18 21.66,2.95 26.95,10.53 2.33,2.93 4.08,5.86 6.41,5.86 2.37,0 2.93,-1.73 2.93,-4.67 0,-3.51 -2.93,-13.47 -4.67,-32.79 -1.18,-11.7 -2.34,-35.12 -2.34,-39.2 0,-5.29 0,-11.15 -4.11,-11.15 -2.91,0 -4.1,2.36 -4.1,5.29 -0.57,5.86 -1.15,14.02 -3.52,21.06 -2.91,8.2 -12.28,18.75 -30.43,21.07 -14.62,1.76 -78.43,1.76 -88.37,1.76 -2.91,0 -4.11,-1.17 -4.11,-5.26 v -49.76 c 0,-56.19 0,-102.42 2.93,-127.03 1.75,-16.97 5.27,-29.86 22.84,-32.19 8.18,-1.17 21.07,-2.34 26.32,-2.34 3.52,0 4.7,-1.74 4.7,-3.5 0,-2.95 -2.92,-4.69 -9.36,-4.69 -32.2,0 -69.08,1.74 -72,1.74 -2.93,0 -39.82,-1.74 -57.38,-1.74 -6.44,0 -9.35,1.16 -9.35,4.69 0,1.76 1.17,3.5 4.68,3.5 5.27,0 12.3,1.17 17.56,2.34 11.7,2.33 14.63,15.22 16.97,32.19 2.93,24.61 2.93,70.84 2.93,127.03 v 103.03"
         style="fill:#5e6061;fill-opacity:1;fill-rule:nonzero;stroke:none"
         transform="matrix(0.13333333,0,0,-0.13333333,0,282.34667)" />
      <path
         id="path13"
         d="m 2177.5,1107.56 c 46.26,0 139.33,24.58 139.33,168.57 0,119.42 -72.59,182.05 -153.96,182.05 -86.03,0 -148.08,-53.85 -148.08,-162.15 0,-115.89 69.64,-188.47 162.71,-188.47 z m -11.7,369.35 c 115.9,0 203.7,-70.84 203.7,-186.72 0,-111.23 -82.54,-203.1 -206.63,-203.1 -141.07,0 -201.35,105.93 -201.35,195.48 0,80.2 62.05,194.34 204.28,194.34"
         style="fill:#5e6061;fill-opacity:1;fill-rule:nonzero;stroke:none"
         transform="matrix(0.13333333,0,0,-0.13333333,0,282.34667)" />
      <path
         id="path14"
         d="m 2513.35,1325.89 c 0,77.27 0,91.31 -1.15,107.13 -1.18,15.79 -4.11,25.16 -21.07,27.5 -4.1,0.59 -12.89,1.18 -17.58,1.18 -1.74,0 -4.1,2.34 -4.1,4.1 0,2.91 2.36,4.08 8.21,4.08 23.39,0 54.41,-1.17 59.12,-1.17 4.67,0 36.87,1.17 52.09,1.17 5.84,0 8.77,-1.17 8.77,-4.08 0,-1.76 -2.35,-4.1 -4.67,-4.1 -3.52,0 -6.45,0 -12.87,-1.18 -13.48,-2.34 -16.41,-11.11 -17.56,-27.5 -1.19,-15.82 -1.19,-29.86 -1.19,-107.13 v -69.66 c 0,-72.01 15.82,-101.84 38.06,-121.76 25.16,-22.81 47.43,-26.91 76.66,-26.91 31.63,0 62.06,14.06 79.63,35.12 23.99,28.68 29.26,69.66 29.26,120.58 v 62.63 c 0,77.27 -0.58,91.31 -1.17,107.13 -0.59,15.79 -3.52,25.16 -20.49,27.5 -4.08,0.59 -12.89,1.18 -17.56,1.18 -2.34,0 -4.1,2.34 -4.1,4.1 0,2.91 2.32,4.08 8.2,4.08 22.82,0 52.68,-1.17 55.61,-1.17 3.51,0 28.1,1.17 43.32,1.17 5.86,0 8.18,-1.17 8.18,-4.08 0,-1.76 -1.74,-4.1 -4.08,-4.1 -3.51,0 -6.44,0 -12.89,-1.18 -14.04,-2.92 -16.97,-11.11 -18.12,-27.5 -1.2,-15.82 -0.59,-29.86 -0.59,-107.13 v -53.28 c 0,-53.84 -7.05,-114.12 -48.03,-149.25 -37.46,-32.19 -77.24,-36.27 -107.67,-36.27 -17,0 -70.86,1.15 -107.13,35.09 -25.18,23.42 -45.09,57.96 -45.09,130.55 v 73.16"
         style="fill:#5e6061;fill-opacity:1;fill-rule:nonzero;stroke:none"
         transform="matrix(0.13333333,0,0,-0.13333333,0,282.34667)" />
      <path
         id="path15"
         d="m 3036.5,1161.43 c 1.2,-40.98 5.86,-53.29 19.93,-56.8 9.35,-2.35 21.07,-2.93 25.74,-2.93 2.36,0 4.1,-1.74 4.1,-4.08 0,-2.95 -3.52,-4.11 -9.36,-4.11 -29.27,0 -49.76,1.74 -54.45,1.74 -4.67,0 -26.33,-1.74 -49.76,-1.74 -5.26,0 -8.19,0.57 -8.19,4.11 0,2.34 1.76,4.08 4.1,4.08 4.09,0 13.46,0.58 21.08,2.93 12.87,3.51 14.63,16.99 14.63,62.05 v 285.08 c 0,19.88 2.93,25.15 7.03,25.15 5.84,0 14.63,-9.94 19.9,-15.21 8.18,-8.21 83.13,-87.8 162.73,-169.75 50.92,-52.69 105.94,-111.81 121.76,-128.2 l -5.29,249.35 c -0.59,32.21 -3.52,43.33 -19.32,46.25 -9.37,1.76 -21.07,2.35 -25.17,2.35 -3.5,0 -4.08,2.93 -4.08,4.69 0,2.91 4.08,3.49 9.96,3.49 23.39,0 47.98,-1.17 53.82,-1.17 5.88,0 22.86,1.17 43.91,1.17 5.27,0 9.36,-0.58 9.36,-3.49 0,-1.76 -2.33,-4.69 -5.84,-4.69 -2.33,0 -6.45,0 -12.29,-1.18 -16.97,-3.51 -18.14,-13.47 -18.14,-43.32 l -1.18,-291.5 c 0,-32.77 -0.58,-35.7 -4.08,-35.7 -5.29,0 -10.54,4.08 -39.24,30.45 -5.27,4.66 -79.61,77.83 -134.04,134.61 -59.71,62.63 -117.66,123.51 -133.46,141.09 l 5.84,-234.72"
         style="fill:#5e6061;fill-opacity:1;fill-rule:nonzero;stroke:none"
         transform="matrix(0.13333333,0,0,-0.13333333,0,282.34667)" />
      <path
         id="path16"
         d="m 3584.26,1272.03 c 0,-52.68 0,-98.91 0.58,-108.28 0.59,-12.29 1.76,-30.43 5.86,-35.73 6.43,-9.33 24.59,-19.88 85.47,-19.88 47.4,0 89.55,15.8 120.57,45.06 26.91,25.18 40.39,72.58 40.39,118.26 0,63.2 -27.5,103.6 -48.58,124.69 -48.59,49.16 -105.37,55.61 -166.81,55.61 -9.98,0 -26.37,-1.78 -31.04,-3.54 -4.68,-1.76 -6.44,-4.08 -6.44,-9.94 z m -46.82,53.86 c 0,77.27 0,91.31 -1.19,107.13 -1.15,16.96 -4.08,25.16 -21.05,27.5 -4.13,0.59 -12.9,1.18 -17.56,1.18 -1.76,0 -4.1,2.34 -4.1,4.1 0,2.91 2.34,4.08 8.18,4.08 23.42,0 56.8,-1.17 59.71,-1.17 5.84,0 38.65,1.17 69.06,1.17 51.52,0 145.76,4.71 206.64,-56.78 25.76,-25.76 50.35,-67.3 50.35,-126.42 0,-62.62 -26.95,-110.65 -55.6,-139.92 -22.25,-22.82 -68.5,-57.35 -156.29,-57.35 -22.25,0 -49.77,1.76 -72.02,2.93 -22.24,1.74 -39.8,2.91 -42.14,2.91 -1.16,0 -10.53,-0.58 -21.08,-0.58 -10.53,-0.59 -22.83,-1.16 -31.01,-1.16 -5.26,0 -8.19,1.16 -8.19,4.11 0,1.75 1.15,4.08 4.08,4.08 4.69,0 11.14,1.17 15.81,2.34 9.96,2.33 11.13,11.7 13.47,26.35 2.93,20.49 2.93,59.72 2.93,107.69 v 87.81"
         style="fill:#5e6061;fill-opacity:1;fill-rule:nonzero;stroke:none"
         transform="matrix(0.13333333,0,0,-0.13333333,0,282.34667)" />
      <path
         id="path17"
         d="m 4052.4,1325.89 c 0,77.27 0,91.31 -1.17,107.13 -1.15,16.96 -4.08,25.16 -21.07,27.5 -4.11,0.59 -12.87,1.18 -17.54,1.18 -1.78,0 -4.12,2.34 -4.12,4.1 0,2.91 2.34,4.08 8.2,4.08 23.42,0 56.78,-1.17 59.69,-1.17 3.53,0 111.25,-0.57 122.95,0 9.94,0.59 19.31,2.36 23.39,2.93 2.37,0.58 4.71,2.36 7.04,2.36 1.75,0 2.34,-2.36 2.34,-4.7 0,-3.5 -2.93,-9.36 -4.08,-23.41 -0.59,-4.7 -1.78,-26.95 -2.93,-32.79 -0.59,-2.32 -2.37,-5.25 -4.69,-5.25 -2.93,0 -4.12,2.34 -4.12,6.42 0,3.54 -0.57,11.72 -2.91,17.56 -3.52,8.23 -8.79,11.72 -36.88,15.22 -8.79,1.17 -68.49,1.76 -74.33,1.76 -2.35,0 -2.93,-1.76 -2.93,-5.26 v -135.21 c 0,-3.52 0,-5.29 2.93,-5.29 6.44,0 74.33,0 86.03,1.18 12.31,1.18 19.91,1.76 25.18,7.04 3.51,3.51 5.86,6.42 7.62,6.42 1.73,0 2.91,-1.17 2.91,-4.08 0,-2.95 -2.91,-11.13 -4.09,-27.52 -1.17,-9.96 -2.34,-28.69 -2.34,-32.2 0,-4.09 -1.19,-9.36 -4.67,-9.36 -2.36,0 -3.53,1.76 -3.53,4.69 0,4.67 0,9.92 -2.35,16.36 -1.73,7.03 -6.42,12.89 -26.32,15.26 -14.07,1.73 -69.09,2.32 -77.86,2.32 -2.93,0 -3.51,-1.76 -3.51,-3.5 v -41.58 c 0,-16.97 -0.59,-74.92 0,-84.88 1.17,-33.36 10.55,-39.8 61.44,-39.8 13.48,0 38.07,0 51.53,5.29 13.45,5.84 20.49,14.63 23.4,34.51 1.19,5.88 2.36,7.64 5.29,7.64 2.93,0 3.49,-4.12 3.49,-7.64 0,-3.5 -4.08,-37.46 -7.01,-47.97 -3.51,-12.89 -8.81,-12.89 -28.69,-12.89 -38.63,0 -68.48,1.17 -89.55,1.74 -21.68,1.17 -35.12,1.17 -42.75,1.17 -1.14,0 -11.1,0 -22.23,-0.58 -9.94,-0.59 -21.66,-1.16 -29.84,-1.16 -5.26,0 -8.21,1.16 -8.21,4.11 0,1.75 1.18,4.08 4.1,4.08 4.69,0 11.14,1.75 15.81,2.34 9.96,1.78 11.13,11.7 13.45,26.35 2.93,20.49 2.93,59.72 2.93,107.69 v 87.81"
         style="fill:#5e6061;fill-opacity:1;fill-rule:nonzero;stroke:none"
         transform="matrix(0.13333333,0,0,-0.13333333,0,282.34667)" />
      <path
         id="path18"
         d="m 4466.15,1283.75 c 0,-2.91 1.15,-4.69 3.52,-6.43 7.6,-4.1 33.94,-7.62 56.76,-7.62 12.3,0 26.36,0.59 38.65,8.77 17.54,11.72 31.01,38.05 31.01,76.12 0,62.03 -33.94,97.75 -88.96,97.75 -15.24,0 -31.6,-1.78 -36.9,-2.93 -2.32,-1.19 -4.08,-2.95 -4.08,-5.86 z m -44.49,42.14 c 0,77.27 0,91.31 -1.17,107.13 -1.17,16.96 -4.08,25.16 -21.08,27.5 -4.1,0.59 -12.87,1.18 -17.55,1.18 -1.76,0 -4.11,2.34 -4.11,4.1 0,2.91 2.35,4.08 8.21,4.08 23.42,0 57.95,-1.17 60.88,-1.17 5.25,0 48.57,1.17 64.37,1.17 32.79,0 69.08,-2.91 96.02,-21.66 12.87,-9.36 35.7,-33.36 35.7,-67.89 0,-36.86 -15.22,-72.58 -63.22,-113.56 42.15,-52.67 77.83,-97.77 107.69,-128.79 27.52,-28.08 44.51,-32.75 57.37,-34.53 9.96,-1.75 15.23,-1.75 18.16,-1.75 2.93,0 4.67,-2.33 4.67,-4.08 0,-2.95 -2.93,-4.11 -12.29,-4.11 h -32.2 c -29.26,0 -42.13,2.93 -55.02,9.94 -22.25,11.72 -40.98,35.73 -70.26,73.17 -21.64,26.93 -44.45,59.14 -55.6,72.6 -2.33,2.34 -3.5,2.92 -7,2.92 l -65.56,1.16 c -2.37,0 -3.52,-1.16 -3.52,-4.08 v -11.72 c 0,-47.99 0,-86.62 2.35,-107.11 1.73,-14.65 4.66,-24.02 20.46,-26.35 7.04,-1.17 18.17,-2.34 22.86,-2.34 3.49,0 4.08,-2.33 4.08,-4.08 0,-2.37 -2.33,-4.11 -8.2,-4.11 -28.09,0 -60.86,1.74 -63.21,1.74 -0.58,0 -35.11,-1.74 -50.92,-1.74 -5.27,0 -8.2,1.16 -8.2,4.11 0,1.75 1.17,4.08 4.08,4.08 4.71,0 11.16,1.17 15.82,2.34 9.94,2.33 11.14,11.7 13.46,26.35 2.93,20.49 2.93,59.72 2.93,107.69 v 87.81"
         style="fill:#5e6061;fill-opacity:1;fill-rule:nonzero;stroke:none"
         transform="matrix(0.13333333,0,0,-0.13333333,0,282.34667)" />
      <path
         id="path19"
         d="m 1694.3,633.121 c 0,-52.543 0,-95.762 2.75,-118.75 1.64,-15.883 4.91,-27.91 21.33,-30.09 7.66,-1.101 19.69,-2.191 24.62,-2.191 3.27,0 4.37,-1.621 4.37,-3.281 0,-2.739 -2.73,-4.36 -8.76,-4.36 -30.07,0 -64.55,1.621 -67.28,1.621 -2.76,0 -37.23,-1.621 -53.62,-1.621 -6.02,0 -8.75,1.09 -8.75,4.36 0,1.66 1.09,3.281 4.36,3.281 4.94,0 11.48,1.09 16.43,2.191 10.93,2.18 13.69,14.207 15.87,30.09 2.72,22.988 2.72,66.207 2.72,118.75 v 96.27 c 0,85.371 0,100.687 -1.09,118.187 -1.1,18.613 -6.57,27.91 -18.6,30.66 -6.02,1.621 -13.14,2.192 -16.96,2.192 -2.19,0 -4.39,1.09 -4.39,3.261 0,3.278 2.75,4.368 8.75,4.368 18.05,0 52.52,-1.618 55.28,-1.618 2.73,0 37.21,1.618 53.62,1.618 6.03,0 8.76,-1.09 8.76,-4.368 0,-2.171 -2.19,-3.261 -4.39,-3.261 -3.83,0 -7.1,-0.571 -13.68,-1.66 -14.77,-2.739 -19.14,-12.032 -20.23,-31.192 -1.11,-17.5 -1.11,-32.816 -1.11,-118.187 v -96.27"
         style="fill:#5e6061;fill-opacity:1;fill-rule:nonzero;stroke:none"
         transform="matrix(0.13333333,0,0,-0.13333333,0,282.34667)" />
      <path
         id="path20"
         d="m 1940.47,537.891 c 1.09,-38.282 5.47,-49.77 18.59,-53.051 8.76,-2.168 19.69,-2.75 24.08,-2.75 2.19,0 3.83,-1.621 3.83,-3.828 0,-2.723 -3.28,-3.813 -8.76,-3.813 -27.35,0 -46.5,1.621 -50.87,1.621 -4.39,0 -24.63,-1.621 -46.52,-1.621 -4.9,0 -7.66,0.531 -7.66,3.813 0,2.207 1.66,3.828 3.84,3.828 3.82,0 12.57,0.582 19.7,2.75 12.02,3.281 13.69,15.859 13.69,57.988 v 266.461 c 0,18.602 2.72,23.539 6.54,23.539 5.49,0 13.7,-9.316 18.6,-14.238 7.67,-7.668 77.7,-82.09 152.13,-158.672 47.59,-49.238 99.02,-104.527 113.8,-119.816 l -4.94,233.097 c -0.54,30.063 -3.27,40.469 -18.04,43.223 -8.76,1.617 -19.71,2.168 -23.52,2.168 -3.3,0 -3.85,2.738 -3.85,4.379 0,2.75 3.85,3.281 9.3,3.281 21.89,0 44.86,-1.102 50.35,-1.102 5.46,0 21.33,1.102 41.04,1.102 4.92,0 8.76,-0.531 8.76,-3.281 0,-1.641 -2.2,-4.379 -5.48,-4.379 -2.19,0 -6.03,0 -11.49,-1.09 -15.88,-3.281 -16.96,-12.582 -16.96,-40.488 l -1.08,-272.481 c 0,-30.652 -0.55,-33.383 -3.85,-33.383 -4.91,0 -9.84,3.832 -36.66,28.461 -4.93,4.352 -74.41,72.77 -125.28,125.821 -55.83,58.55 -109.99,115.449 -124.78,131.851 l 5.49,-219.39"
         style="fill:#5e6061;fill-opacity:1;fill-rule:nonzero;stroke:none"
         transform="matrix(0.13333333,0,0,-0.13333333,0,282.34667)" />
      <path
         id="path21"
         d="m 2379.19,480.988 c -6.57,3.293 -7.12,4.953 -7.12,17.5 0,22.992 2.21,41.614 2.75,49.262 0,4.941 1.1,7.641 3.82,7.641 2.73,0 4.37,-1.602 4.37,-5.45 0,-3.851 0,-10.39 1.66,-16.953 7.65,-33.949 43.77,-45.957 76.03,-45.957 47.62,0 72.25,26.797 72.25,61.821 0,33.347 -18.06,49.25 -60.74,80.968 l -21.9,16.43 c -51.97,38.828 -68.94,67.301 -68.94,99.57 0,54.711 43.22,87.539 106.7,87.539 19.16,0 38.3,-2.738 49.78,-5.468 9.3,-2.172 13.15,-2.172 16.97,-2.172 3.83,0 4.93,-0.571 4.93,-3.301 0,-2.188 -2.21,-17.5 -2.21,-49.219 0,-7.129 -0.53,-10.41 -3.81,-10.41 -3.28,0 -3.83,2.191 -4.37,6.02 -0.57,5.472 -4.38,18.043 -7.11,22.98 -3.3,5.449 -19.16,22.973 -62.38,22.973 -35.01,0 -64.03,-17.524 -64.03,-50.352 0,-29.531 14.79,-46.5 62.37,-78.769 l 13.69,-9.289 c 58.55,-39.973 78.78,-72.25 78.78,-112.172 0,-27.391 -10.39,-56.918 -44.84,-79.34 -20.27,-13.141 -50.35,-16.399 -76.62,-16.399 -22.42,0 -50.34,3.258 -70.03,12.547"
         style="fill:#5e6061;fill-opacity:1;fill-rule:nonzero;stroke:none"
         transform="matrix(0.13333333,0,0,-0.13333333,0,282.34667)" />
      <path
         id="path22"
         d="m 2855.16,609.59 c 0,-44.891 0,-81.531 2.16,-100.692 1.64,-13.668 3.83,-22.437 18.62,-24.617 6.56,-1.101 17.5,-2.191 21.89,-2.191 3.28,0 3.83,-2.172 3.83,-3.828 0,-2.192 -2.19,-3.813 -7.68,-3.813 -26.25,0 -56.89,1.621 -59.64,1.621 -2.17,0 -35.55,-1.621 -49.77,-1.621 -5.47,0 -7.66,1.09 -7.66,3.813 0,1.656 1.1,3.277 3.81,3.277 4.4,0 9.85,1.133 14.24,2.211 9.84,2.191 12.58,11.48 14.22,25.148 2.21,19.161 2.21,55.801 2.21,100.692 v 195.328 l -69.5,-1.109 c -30.09,-0.547 -41.6,-3.809 -48.71,-14.77 -5.45,-8.219 -6.01,-11.48 -7.65,-14.758 -1.1,-3.832 -2.74,-4.383 -4.92,-4.383 -1.1,0 -3.31,1.09 -3.31,3.813 0,4.937 9.87,46.519 10.43,50.328 1.1,2.75 3.27,8.789 4.91,8.789 3.3,0 8.2,-3.828 21.34,-5.508 13.68,-1.601 32.27,-2.172 37.76,-2.172 h 181.66 c 15.84,0 26.8,1.102 34.47,2.172 7.09,1.102 11.49,2.211 13.67,2.211 2.17,0 2.17,-2.742 2.17,-5.492 0,-14.219 -1.64,-47.578 -1.64,-53.051 0,-3.816 -2.17,-6.008 -4.36,-6.008 -2.2,0 -3.3,1.622 -3.84,8.219 l -0.55,4.903 c -1.64,14.199 -12.03,24.628 -57.99,25.707 l -60.17,1.109 V 609.59"
         style="fill:#5e6061;fill-opacity:1;fill-rule:nonzero;stroke:none"
         transform="matrix(0.13333333,0,0,-0.13333333,0,282.34667)" />
      <path
         id="path23"
         d="m 3171.33,609.59 c 0,-44.891 0,-81.531 2.19,-100.692 1.64,-13.668 3.28,-22.437 17.52,-24.617 7.1,-1.101 17.5,-2.191 21.85,-2.191 2.75,0 3.85,-2.172 3.85,-3.828 0,-2.192 -2.19,-3.813 -7.66,-3.813 -26.81,0 -58.01,1.621 -60.19,1.621 -2.74,0 -32.84,-1.621 -47.58,-1.621 -4.94,0 -7.68,1.09 -7.68,3.813 0,1.656 1.1,3.828 3.83,3.828 4.38,0 10.39,1.09 14.77,2.191 9.31,2.18 10.93,10.949 12.57,24.617 2.21,19.161 2.76,55.801 2.76,100.692 v 82.07 c 0,72.219 0,85.352 -1.1,100.129 -1.11,15.84 -4.92,22.973 -15.31,25.141 -5.49,1.109 -11.52,1.66 -14.78,1.66 -2.19,0 -3.83,2.191 -3.83,3.828 0,2.73 2.19,3.832 7.67,3.832 15.84,0 45.94,-1.102 48.68,-1.102 2.18,0 33.38,1.102 48.16,1.102 5.45,0 7.64,-1.102 7.64,-3.832 0,-1.637 -2.19,-3.828 -3.81,-3.828 -3.28,0 -6.58,0 -12.03,-1.09 -13.15,-2.738 -15.88,-9.281 -16.97,-25.711 -0.55,-14.777 -0.55,-27.91 -0.55,-100.129 v -82.07"
         style="fill:#5e6061;fill-opacity:1;fill-rule:nonzero;stroke:none"
         transform="matrix(0.13333333,0,0,-0.13333333,0,282.34667)" />
      <path
         id="path24"
         d="m 3489.18,609.59 c 0,-44.891 0,-81.531 2.17,-100.692 1.66,-13.668 3.83,-22.437 18.61,-24.617 6.56,-1.101 17.5,-2.191 21.9,-2.191 3.26,0 3.82,-2.172 3.82,-3.828 0,-2.192 -2.18,-3.813 -7.67,-3.813 -26.25,0 -56.9,1.621 -59.65,1.621 -2.17,0 -35.55,-1.621 -49.77,-1.621 -5.46,0 -7.67,1.09 -7.67,3.813 0,1.656 1.09,3.277 3.83,3.277 4.39,0 9.84,1.133 14.23,2.211 9.85,2.191 12.58,11.48 14.22,25.148 2.21,19.161 2.21,55.801 2.21,100.692 v 195.328 l -69.49,-1.109 c -30.12,-0.547 -41.58,-3.809 -48.71,-14.77 -5.45,-8.219 -6.04,-11.48 -7.66,-14.758 -1.09,-3.832 -2.73,-4.383 -4.92,-4.383 -1.08,0 -3.28,1.09 -3.28,3.813 0,4.937 9.82,46.519 10.41,50.328 1.09,2.75 3.26,8.789 4.9,8.789 3.3,0 8.22,-3.828 21.35,-5.508 13.67,-1.601 32.26,-2.172 37.75,-2.172 h 181.66 c 15.84,0 26.8,1.102 34.47,2.172 7.09,1.102 11.47,2.211 13.68,2.211 2.16,0 2.16,-2.742 2.16,-5.492 0,-14.219 -1.62,-47.578 -1.62,-53.051 0,-3.816 -2.2,-6.008 -4.37,-6.008 -2.21,0 -3.3,1.622 -3.85,8.219 l -0.55,4.903 c -1.64,14.199 -12.01,24.628 -57.98,25.707 l -60.18,1.109 V 609.59"
         style="fill:#5e6061;fill-opacity:1;fill-rule:nonzero;stroke:none"
         transform="matrix(0.13333333,0,0,-0.13333333,0,282.34667)" />
      <path
         id="path25"
         d="m 3736.95,691.66 c 0,72.219 0,85.352 -1.07,100.129 -1.09,14.75 -3.85,23.539 -19.73,25.711 -3.81,0.539 -12.03,1.09 -16.38,1.09 -1.66,0 -3.85,2.191 -3.85,3.828 0,2.73 2.19,3.832 7.65,3.832 21.9,0 50.9,-1.102 55.26,-1.102 4.39,0 34.47,1.102 48.71,1.102 5.47,0 8.2,-1.102 8.2,-3.832 0,-1.637 -2.19,-3.828 -4.37,-3.828 -3.28,0 -6.02,0 -12.03,-1.09 -12.58,-2.172 -15.34,-10.391 -16.43,-25.711 -1.09,-14.777 -1.09,-27.91 -1.09,-100.129 v -65.14 c 0,-67.258 14.78,-95.168 35.56,-113.79 23.54,-21.351 44.32,-25.152 71.68,-25.152 29.55,0 58.01,13.121 74.42,32.813 22.42,26.8 27.36,65.121 27.36,112.73 v 58.539 c 0,72.219 -0.55,85.352 -1.09,100.129 -0.55,14.75 -3.3,23.539 -19.14,25.711 -3.85,0.539 -12.06,1.09 -16.43,1.09 -2.21,0 -3.85,2.191 -3.85,3.828 0,2.73 2.21,3.832 7.68,3.832 21.35,0 49.24,-1.102 51.97,-1.102 3.26,0 26.25,1.102 40.49,1.102 5.47,0 7.67,-1.102 7.67,-3.832 0,-1.637 -1.66,-3.828 -3.84,-3.828 -3.28,0 -6.04,0 -12.03,-1.09 -13.15,-2.738 -15.86,-10.391 -16.96,-25.711 -1.09,-14.777 -0.54,-27.91 -0.54,-100.129 v -49.808 c 0,-50.352 -6.59,-106.661 -44.89,-139.512 -35,-30.102 -72.22,-33.899 -100.66,-33.899 -15.88,0 -66.21,1.071 -100.12,32.809 -23.53,21.891 -42.15,54.141 -42.15,122.012 v 68.398"
         style="fill:#5e6061;fill-opacity:1;fill-rule:nonzero;stroke:none"
         transform="matrix(0.13333333,0,0,-0.13333333,0,282.34667)" />
      <path
         id="path26"
         d="m 4310.84,609.59 c 0,-44.891 0,-81.531 2.19,-100.692 1.64,-13.668 3.81,-22.437 18.59,-24.617 6.56,-1.101 17.52,-2.191 21.9,-2.191 3.28,0 3.82,-2.172 3.82,-3.828 0,-2.192 -2.18,-3.813 -7.65,-3.813 -26.27,0 -56.9,1.621 -59.65,1.621 -2.19,0 -35.57,-1.621 -49.79,-1.621 -5.46,0 -7.67,1.09 -7.67,3.813 0,1.656 1.11,3.277 3.83,3.277 4.39,0 9.86,1.133 14.23,2.211 9.85,2.191 12.58,11.48 14.22,25.148 2.21,19.161 2.21,55.801 2.21,100.692 v 195.328 l -69.49,-1.109 c -30.1,-0.547 -41.58,-3.809 -48.71,-14.77 -5.45,-8.219 -6,-11.48 -7.66,-14.758 -1.09,-3.832 -2.73,-4.383 -4.92,-4.383 -1.08,0 -3.28,1.09 -3.28,3.813 0,4.937 9.86,46.519 10.41,50.328 1.09,2.75 3.28,8.789 4.9,8.789 3.28,0 8.22,-3.828 21.37,-5.508 13.65,-1.601 32.24,-2.172 37.73,-2.172 h 181.66 c 15.84,0 26.82,1.102 34.47,2.172 7.09,1.102 11.47,2.211 13.68,2.211 2.16,0 2.16,-2.742 2.16,-5.492 0,-14.219 -1.62,-47.578 -1.62,-53.051 0,-3.816 -2.18,-6.008 -4.37,-6.008 -2.21,0 -3.3,1.622 -3.85,8.219 l -0.53,4.903 c -1.66,14.199 -12.03,24.628 -58,25.707 l -60.18,1.109 V 609.59"
         style="fill:#5e6061;fill-opacity:1;fill-rule:nonzero;stroke:none"
         transform="matrix(0.13333333,0,0,-0.13333333,0,282.34667)" />
      <path
         id="path27"
         d="m 4583.24,691.66 c 0,72.219 0,85.352 -1.09,100.129 -1.11,15.84 -3.83,23.539 -19.71,25.711 -3.83,0.539 -12.03,1.09 -16.4,1.09 -1.66,0 -3.83,2.191 -3.83,3.828 0,2.73 2.17,3.832 7.65,3.832 21.88,0 53.07,-1.102 55.8,-1.102 3.3,0 103.97,-0.519 114.91,0 9.29,0.571 18.04,2.172 21.89,2.743 2.19,0.531 4.36,2.187 6.56,2.187 1.64,0 2.21,-2.187 2.21,-4.359 0,-3.301 -2.75,-8.789 -3.87,-21.91 -0.54,-4.379 -1.62,-25.161 -2.71,-30.61 -0.55,-2.211 -2.19,-4.937 -4.38,-4.937 -2.75,0 -3.82,2.187 -3.82,6.019 0,3.278 -0.55,10.949 -2.74,16.418 -3.28,7.641 -8.22,10.922 -34.47,14.219 -8.22,1.094 -64.01,1.621 -69.49,1.621 -2.19,0 -2.74,-1.621 -2.74,-4.918 V 675.25 c 0,-3.301 0,-4.922 2.74,-4.922 6.03,0 69.49,0 80.43,1.07 11.48,1.102 18.59,1.641 23.53,6.551 3.28,3.301 5.45,6.031 7.11,6.031 1.64,0 2.73,-1.07 2.73,-3.832 0,-2.707 -2.73,-10.41 -3.82,-25.699 -1.12,-9.32 -2.21,-26.82 -2.21,-30.097 0,-3.821 -1.07,-8.75 -4.36,-8.75 -2.18,0 -3.3,1.617 -3.3,4.378 0,4.372 0,9.301 -2.16,15.329 -1.66,6.543 -6.04,12.031 -24.65,14.242 -13.11,1.597 -64.55,2.168 -72.76,2.168 -2.73,0 -3.28,-1.66 -3.28,-3.297 V 609.59 c 0,-15.879 -0.55,-70.039 0,-79.34 1.12,-31.211 9.87,-37.211 57.44,-37.211 12.6,0 35.57,0 48.17,4.93 12.58,5.48 19.14,13.691 21.87,32.281 1.1,5.469 2.19,7.109 4.94,7.109 2.72,0 3.27,-3.847 3.27,-7.109 0,-3.281 -3.81,-35.02 -6.57,-44.879 -3.28,-12.031 -8.18,-12.031 -26.81,-12.031 -36.1,0 -64.01,1.109 -83.69,1.64 -20.26,1.09 -32.84,1.09 -39.97,1.09 -1.09,0 -10.39,0 -20.78,-0.531 -9.29,-0.559 -20.23,-1.09 -27.89,-1.09 -4.94,0 -7.67,1.09 -7.67,3.813 0,1.656 1.09,3.828 3.82,3.828 4.4,0 10.4,1.66 14.77,2.191 9.32,1.66 10.41,10.949 12.58,24.617 2.75,19.161 2.75,55.801 2.75,100.692 v 82.07"
         style="fill:#5e6061;fill-opacity:1;fill-rule:nonzero;stroke:none"
         transform="matrix(0.13333333,0,0,-0.13333333,0,282.34667)" />
    </g>
  </g>
</svg>
